<svg width="48" height="48" viewBox="0 0 48 48" fill="none" xmlns="http://www.w3.org/2000/svg">
<path d="M23.0472 0.678954C22.9007 0.686572 22.7535 0.721728 22.6128 0.787353C22.0878 1.04985 21.8625 1.72485 22.125 2.28735C24.7125 7.46235 24.7125 13.6124 22.125 18.7874C21.825 19.3499 22.0503 20.0249 22.6128 20.2874C22.7628 20.3624 22.9124 20.4001 23.0999 20.4001C23.5124 20.4001 23.8878 20.1747 24.1128 19.7622C27.0003 13.9872 27.0003 7.05015 24.1128 1.27515C23.916 0.881396 23.4866 0.656103 23.0472 0.678954ZM31.8003 5.0625C31.1628 5.0625 30.6753 5.55 30.6753 6.1875C30.6753 6.825 31.1628 7.3125 31.8003 7.3125C32.4003 7.3125 32.9253 6.825 32.9253 6.1875C32.9253 5.55 32.4378 5.0625 31.8003 5.0625ZM9.26225 6.75C8.62475 6.75 8.13725 7.2375 8.13725 7.875C8.13725 8.5125 8.62475 9 9.26225 9C9.89975 9 10.3872 8.5125 10.3872 7.875C10.3872 7.2375 9.89975 6.75 9.26225 6.75ZM20.0252 8.77515C19.3877 8.77515 18.9002 9.26265 18.9002 9.90015C18.9002 10.5376 19.3877 11.0251 20.0252 11.0251C20.6252 11.0251 21.1502 10.5376 21.1502 9.90015C21.1502 9.26265 20.6627 8.77515 20.0252 8.77515ZM14.9766 10.4626C14.6907 10.4626 14.4003 10.5753 14.1753 10.8003C13.7253 11.2128 13.7253 11.925 14.1753 12.375C15.1128 13.275 15.675 14.4749 15.75 15.7874C15.7875 16.3874 16.275 16.8376 16.875 16.8376C16.875 16.8376 16.9124 16.8375 16.9124 16.875C17.5499 16.8375 18.0002 16.3128 17.9627 15.6753C17.8502 13.8378 17.0625 12.1128 15.75 10.8003C15.5438 10.5753 15.2625 10.4626 14.9766 10.4626ZM38.5122 15.1501C37.8747 15.1501 37.3872 15.6376 37.3872 16.2751C37.3872 16.9126 37.8747 17.4001 38.5122 17.4001C39.1122 17.4001 39.6372 16.9126 39.6372 16.2751C39.6372 15.6376 39.1497 15.1501 38.5122 15.1501ZM11.8052 16.6421C10.9696 16.6063 10.296 16.8325 9.78739 17.3247C9.41239 17.6997 9.18783 18.1501 9.11283 18.7126L0.599892 44.3247C0.337392 45.1497 0.525038 46.0128 1.12504 46.6128C1.53754 47.0253 2.13725 47.2874 2.69975 47.2874C2.92475 47.2874 3.18739 47.2503 3.41239 47.1753L28.6875 38.7378C29.4 38.7003 29.9999 38.475 30.4124 38.0625C31.5374 36.9375 31.3124 34.9126 29.6624 32.0251C28.7999 30.4876 27.5624 28.7624 26.0999 27.0374C27.6749 26.1749 28.8375 25.5749 28.875 25.5374C34.05 22.9499 40.2 22.9499 45.375 25.5374C46.0125 25.8374 46.7622 25.5372 46.9497 24.8247C47.1372 24.3372 46.8747 23.7753 46.3872 23.5503C40.6122 20.6628 33.7127 20.6626 27.9002 23.5876C27.8252 23.6251 26.3999 24.3374 24.5999 25.3499C24.1874 25.5749 23.7753 25.8 23.3628 26.0625C23.1753 26.175 22.9878 26.2126 22.8003 26.2126C22.4253 26.2126 22.0497 26.0251 21.8247 25.6501C21.5247 25.1251 21.6753 24.4128 22.2378 24.1128C22.6128 23.8878 22.6874 23.3625 22.3499 23.0625C20.0999 20.9625 17.8122 19.2372 15.8247 18.0747C14.2216 17.1677 12.8796 16.6882 11.8052 16.6421ZM30.7874 17.5122C30.1499 17.5122 29.6624 17.9997 29.6624 18.6372C29.6624 19.2747 30.1499 19.7622 30.7874 19.7622C31.3874 19.7622 31.9124 19.2747 31.9124 18.6372C31.9124 17.9997 31.4249 17.5122 30.7874 17.5122ZM10.1624 22.7249C10.2749 22.9499 10.3875 23.1378 10.5 23.3628C11.85 25.7628 14.0252 28.5 16.6502 31.125C19.2752 33.75 22.0124 35.9251 24.4124 37.2751C24.5999 37.3876 24.7874 37.4622 24.9749 37.5747L2.73783 45.0374L10.1624 22.7249ZM46.2378 29.5876C45.6003 29.5876 45.1128 30.0751 45.1128 30.7126C45.1128 31.3501 45.6003 31.8376 46.2378 31.8376C46.8378 31.8376 47.3628 31.3501 47.3628 30.7126C47.3628 30.0751 46.8753 29.5876 46.2378 29.5876ZM32.0625 29.6624C31.4625 29.6249 30.9003 30.0751 30.8628 30.7126C30.8253 31.3126 31.2749 31.8749 31.9124 31.9124C33.1874 32.0249 34.4247 32.5878 35.3247 33.4878C35.5497 33.7128 35.8128 33.8247 36.1128 33.8247C36.3753 33.8247 36.675 33.7122 36.9375 33.4497C37.3875 33.0372 37.3875 32.325 36.9375 31.875C35.625 30.6 33.9 29.7749 32.0625 29.6624ZM36.8247 37.6501C36.1872 37.6501 35.6997 38.1376 35.6997 38.7751C35.6997 39.4126 36.1872 39.9001 36.8247 39.9001C37.4622 39.9001 37.9497 39.4126 37.9497 38.7751C37.9497 38.1376 37.4622 37.6501 36.8247 37.6501Z" fill="white"/>
</svg>
