<svg width="48" height="48" viewBox="0 0 48 48" fill="none" xmlns="http://www.w3.org/2000/svg">
<path d="M24 6C20.4375 6 17.2878 7.83765 15.4878 10.6501C14.5128 10.4251 13.4253 10.425 12.3003 10.875C10.2003 11.7 8.70003 13.65 8.62503 15.9375C8.55003 17.6625 9.30017 19.2372 10.4627 20.3247C9.63767 21.4497 9.22488 22.8375 9.41238 24.375C9.71238 26.8875 11.7375 28.9125 14.25 29.25C15.375 29.4 16.4247 29.2128 17.3247 28.8003C17.3247 28.8003 17.5875 28.6872 17.8125 28.5747C18.3 28.2747 18.3375 27.5249 18 27.0374C17.025 25.6874 16.5 24.1125 16.5 22.5C16.5 22.0875 16.8377 21.7874 17.2127 21.7874H19.9124C21.0749 21.7874 22.3128 21.6372 23.5503 21.2622C26.0253 20.5122 28.0499 19.0125 29.2874 17.25C29.4374 17.025 29.5872 16.8378 29.6997 16.6128C29.9997 16.0878 30.6747 15.8251 31.1997 16.0876C31.7997 16.3876 31.9875 17.0999 31.6875 17.6624C31.5 17.9999 31.2753 18.3372 31.0503 18.6372C30.8253 18.9372 30.7875 19.3499 30.9375 19.7249C31.3125 20.6249 31.5002 21.6375 31.4627 22.6875C31.3877 26.2125 28.7627 29.2872 25.2752 29.8872C24.1502 30.0747 23.025 30.0378 21.9375 29.7378C21.375 29.5878 20.7372 29.8499 20.5122 30.4124C20.2872 31.0124 20.6247 31.6875 21.2622 31.875C22.1247 32.1375 23.0252 32.25 23.9627 32.25C26.8502 32.25 29.4378 30.9753 31.2378 28.9878C31.9878 29.2503 32.8127 29.3251 33.7127 29.2126C36.3377 28.8751 38.4002 26.6624 38.5877 24.0374C38.7002 22.6124 38.25 21.3374 37.5 20.2874C38.7 19.1999 39.4127 17.6251 39.3377 15.9001C39.3002 13.6501 37.7624 11.6625 35.6624 10.875C34.5374 10.4625 33.4872 10.4251 32.5122 10.6501C30.7122 7.83765 27.5625 6 24 6ZM24 34.125C17.85 34.125 12.1503 37.4624 9.11282 42.7874C8.81282 43.3124 9.00017 44.0247 9.52517 44.3247C10.0502 44.6247 10.7625 44.4374 11.0625 43.9124C13.725 39.2624 18.675 36.375 24 36.375C29.325 36.375 34.275 39.2624 36.9375 43.9124C37.1625 44.2874 37.5374 44.4749 37.9124 44.4749C38.0999 44.4749 38.2874 44.4372 38.4749 44.3247C38.9999 44.0247 39.1872 43.3124 38.8872 42.7874C35.8497 37.4624 30.15 34.125 24 34.125Z" fill="white"/>
</svg>
