<svg width="48" height="48" viewBox="0 0 48 48" fill="none" xmlns="http://www.w3.org/2000/svg">
<path d="M24 0.375C23.6022 0.375 23.2206 0.533035 22.9393 0.81434C22.658 1.09564 22.5 1.47718 22.5 1.875C22.5 2.27282 22.658 2.65436 22.9393 2.93566C23.2206 3.21696 23.6022 3.375 24 3.375C24.3978 3.375 24.7794 3.21696 25.0607 2.93566C25.342 2.65436 25.5 2.27282 25.5 1.875C25.5 1.47718 25.342 1.09564 25.0607 0.81434C24.7794 0.533035 24.3978 0.375 24 0.375ZM14.001 3.17432C13.7109 3.15674 13.4155 3.23438 13.1624 3.375C12.4499 3.7875 12.1874 4.725 12.5999 5.4375C12.8624 5.85 13.35 6.15015 13.875 6.15015C14.1375 6.15015 14.4 6.07515 14.625 5.96265C14.9625 5.77515 15.2251 5.4375 15.3376 5.0625C15.4501 4.6875 15.375 4.275 15.1875 3.9375C15 3.6 14.6624 3.33735 14.2874 3.22485C14.1936 3.19673 14.0977 3.18018 14.001 3.17432ZM33.8306 3.55884C33.3457 3.59766 32.8828 3.86719 32.625 4.3125C32.2125 4.9875 32.475 5.92515 33.1875 6.33765C33.4125 6.48765 33.675 6.52515 33.9375 6.52515C34.4625 6.52515 34.95 6.26265 35.25 5.77515C35.4375 5.43765 35.5126 5.02515 35.4001 4.65015C35.2876 4.27515 35.0625 3.9375 34.6875 3.75C34.4203 3.59531 34.1215 3.53555 33.8306 3.55884ZM24 5.625C15.1125 5.625 7.875 12.8625 7.875 21.75C7.875 27.2625 10.6503 32.3247 15.3003 35.3247C15.8253 35.6622 16.5001 35.5128 16.8376 34.9878C17.1751 34.4628 17.025 33.7872 16.5 33.4497C12.525 30.8622 10.125 26.475 10.125 21.75C10.125 14.1 16.35 7.875 24 7.875C31.65 7.875 37.875 14.1 37.875 21.75C37.875 26.475 35.475 30.8624 31.5 33.4124C30.975 33.7499 30.8249 34.4622 31.1624 34.9497C31.3874 35.2872 31.7249 35.4749 32.0999 35.4749C32.3249 35.4749 32.5122 35.3999 32.6997 35.2874C37.3497 32.3249 40.125 27.2625 40.125 21.75C40.125 12.8625 32.8875 5.625 24 5.625ZM24 10.125C20.2125 10.125 16.6499 12.0003 14.4749 15.1128C14.1374 15.6378 14.2503 16.3125 14.7378 16.6875C14.9253 16.8 15.15 16.875 15.375 16.875C15.7125 16.875 16.0875 16.7247 16.3125 16.3872C18.075 13.8747 20.925 12.375 24 12.375C24.6375 12.375 25.125 11.8875 25.125 11.25C25.125 10.6125 24.6375 10.125 24 10.125ZM6.36182 10.5996C6.26514 10.6055 6.16846 10.622 6.07471 10.6501C5.69971 10.7626 5.36279 10.9878 5.17529 11.3628C4.98779 11.7003 4.91265 12.1128 5.02515 12.4878C5.13765 12.8628 5.36279 13.1997 5.73779 13.3872C5.96279 13.5372 6.22529 13.5747 6.48779 13.5747C7.01279 13.5747 7.50029 13.3122 7.80029 12.8247C7.98779 12.4872 8.06221 12.0747 7.94971 11.6997C7.79971 11.3247 7.53721 10.9878 7.19971 10.8003C6.94658 10.6597 6.65186 10.582 6.36182 10.5996ZM41.2822 10.7842C40.9913 10.7675 40.6925 10.8331 40.4253 10.9878C40.0878 11.1753 39.8251 11.5122 39.7126 11.8872C39.6001 12.2622 39.6753 12.6747 39.8628 13.0122C40.1253 13.4997 40.6503 13.7622 41.1753 13.7622C41.4378 13.7622 41.7003 13.6872 41.9253 13.5747C42.6378 13.1622 42.9003 12.2247 42.4878 11.5122C42.23 11.0669 41.7671 10.812 41.2822 10.7842ZM13.5 20.5122C13.2016 20.5122 12.9155 20.6307 12.7045 20.8417C12.4935 21.0527 12.375 21.3388 12.375 21.6372C12.375 21.9356 12.4935 22.2217 12.7045 22.4327C12.9155 22.6437 13.2016 22.7622 13.5 22.7622C13.7984 22.7622 14.0845 22.6437 14.2955 22.4327C14.5065 22.2217 14.625 21.9356 14.625 21.6372C14.625 21.3388 14.5065 21.0527 14.2955 20.8417C14.0845 20.6307 13.7984 20.5122 13.5 20.5122ZM24 20.625C23.475 20.625 23.0624 20.9622 22.9124 21.4497L16.3872 45.375H1.5C0.8625 45.375 0.375 45.8625 0.375 46.5C0.375 47.1375 0.8625 47.625 1.5 47.625H46.5C47.1375 47.625 47.625 47.1375 47.625 46.5C47.625 45.8625 47.1375 45.375 46.5 45.375H31.6128L25.0876 21.4497C24.9376 20.9622 24.525 20.625 24 20.625ZM34.5 20.625C33.8625 20.625 33.375 21.1125 33.375 21.75C33.375 23.775 32.7374 25.7251 31.5374 27.3376C31.1624 27.8251 31.2747 28.5374 31.7622 28.9124C31.9497 29.0624 32.2125 29.1372 32.4375 29.1372C32.775 29.1372 33.1126 28.9875 33.3376 28.6875C34.8376 26.6625 35.625 24.2625 35.625 21.75C35.625 21.1125 35.1375 20.625 34.5 20.625ZM3.67529 20.7378C3.27747 20.7378 2.89594 20.8958 2.61463 21.1771C2.33333 21.4584 2.17529 21.84 2.17529 22.2378C2.17529 22.6356 2.33333 23.0171 2.61463 23.2985C2.89594 23.5798 3.27747 23.7378 3.67529 23.7378C4.07312 23.7378 4.45465 23.5798 4.73595 23.2985C5.01726 23.0171 5.17529 22.6356 5.17529 22.2378C5.17529 21.84 5.01726 21.4584 4.73595 21.1771C4.45465 20.8958 4.07312 20.7378 3.67529 20.7378ZM43.8003 20.7378C43.4025 20.7378 43.0209 20.8958 42.7396 21.1771C42.4583 21.4584 42.3003 21.84 42.3003 22.2378C42.3003 22.6356 42.4583 23.0171 42.7396 23.2985C43.0209 23.5798 43.4025 23.7378 43.8003 23.7378C44.1981 23.7378 44.5796 23.5798 44.861 23.2985C45.1423 23.0171 45.3003 22.6356 45.3003 22.2378C45.3003 21.84 45.1423 21.4584 44.861 21.1771C44.5796 20.8958 44.1981 20.7378 43.8003 20.7378ZM24 26.0251L29.2874 45.375H18.7126L24 26.0251ZM41.0684 30.6716C40.5835 30.7104 40.1206 30.98 39.8628 31.4253C39.4503 32.1378 39.7128 33.0753 40.4253 33.4878C40.6503 33.6378 40.9128 33.6753 41.1753 33.6753C41.7003 33.6753 42.1878 33.4128 42.4878 32.9253C42.9003 32.1753 42.6753 31.2753 41.9253 30.8628C41.6581 30.7081 41.3593 30.6483 41.0684 30.6716ZM6.53833 30.8496C6.24829 30.832 5.95283 30.9097 5.69971 31.0503C5.36221 31.2378 5.10029 31.5747 4.98779 31.9497C4.87529 32.3247 4.94971 32.7372 5.13721 33.0747C5.32471 33.4122 5.66235 33.6749 6.03735 33.7874C6.14985 33.8249 6.29985 33.8247 6.41235 33.8247C6.67485 33.8247 6.93735 33.7497 7.16235 33.6372C7.87485 33.2247 8.13735 32.2872 7.72485 31.5747C7.53735 31.2372 7.19971 31.0126 6.82471 30.9001C6.73096 30.872 6.63501 30.8555 6.53833 30.8496ZM34.0261 37.8999C33.7361 37.8823 33.4406 37.9592 33.1875 38.0999C32.85 38.2874 32.5874 38.625 32.4749 39C32.3624 39.375 32.4375 39.7875 32.625 40.125C32.8125 40.4625 33.1501 40.7251 33.5251 40.8376C33.6376 40.8751 33.7876 40.875 33.9001 40.875C34.1626 40.875 34.4251 40.8 34.6501 40.6875C34.9876 40.5 35.2503 40.1624 35.3628 39.7874C35.4753 39.4124 35.4001 38.9999 35.2126 38.6624C35.0251 38.2874 34.725 38.0247 34.3125 37.9497C34.2188 37.9216 34.1228 37.9058 34.0261 37.8999ZM13.7864 38.2749C13.6897 38.2808 13.5938 38.2966 13.5 38.3247C13.125 38.4372 12.7874 38.6624 12.5999 39.0374C12.4124 39.3749 12.3372 39.7874 12.4497 40.1624C12.5622 40.5374 12.7874 40.875 13.1624 41.0625C13.3874 41.2125 13.6499 41.25 13.9124 41.25C14.4374 41.25 14.9249 40.9875 15.2249 40.5C15.4124 40.1625 15.4875 39.75 15.375 39.375C15.225 39 14.9625 38.6624 14.625 38.4749C14.3719 38.3342 14.0764 38.2573 13.7864 38.2749ZM24 40.5C23.6022 40.5 23.2206 40.658 22.9393 40.9393C22.658 41.2206 22.5 41.6022 22.5 42C22.5 42.3978 22.658 42.7794 22.9393 43.0607C23.2206 43.342 23.6022 43.5 24 43.5C24.3978 43.5 24.7794 43.342 25.0607 43.0607C25.342 42.7794 25.5 42.3978 25.5 42C25.5 41.6022 25.342 41.2206 25.0607 40.9393C24.7794 40.658 24.3978 40.5 24 40.5Z" fill="white"/>
</svg>
