<svg xmlns="http://www.w3.org/2000/svg" version="1.1" xmlns:xlink="http://www.w3.org/1999/xlink" xmlns:svgjs="http://svgjs.dev/svgjs" width="1000" height="237" viewBox="0 0 1000 237"><g transform="matrix(1,0,0,1,-0.6060606060606233,-0.12269380357506066)"><svg viewBox="0 0 396 94" data-background-color="#ffffff" preserveAspectRatio="xMidYMid meet" height="237" width="1000" xmlns="http://www.w3.org/2000/svg" xmlns:xlink="http://www.w3.org/1999/xlink"><g id="tight-bounds" transform="matrix(1,0,0,1,0.2400000000000091,0.0486633651310342)"><svg viewBox="0 0 395.52 93.90257611735336" height="93.90257611735336" width="395.52"><g><svg viewBox="0 0 551.9810956937272 131.04886441575732" height="93.90257611735336" width="395.52"><g transform="matrix(1,0,0,1,156.46109569372717,38.613361961464534)"><svg viewBox="0 0 395.52 53.82214049282825" height="53.82214049282825" width="395.52"><g><svg viewBox="0 0 395.52 53.82214049282825" height="53.82214049282825" width="395.52"><g><svg viewBox="0 0 395.52 53.82214049282825" height="53.82214049282825" width="395.52"><g transform="matrix(1,0,0,1,0,0)"><svg width="395.52" viewBox="4.45 -36.5 271.88 37" height="53.82214049282825" data-palette-color="#0f0d12"><path d="M28.45 0L4.45 0 4.45-35.5 7.95-35.5 7.95-3.1 28.45-3.1 28.45 0ZM43.6 0.5L43.6 0.5Q40.8 0.5 38.4-0.58 36-1.65 34.25-3.53 32.5-5.4 31.52-7.85 30.55-10.3 30.55-13.1L30.55-13.1Q30.55-16.75 32.22-19.8 33.9-22.85 36.85-24.68 39.8-26.5 43.55-26.5L43.55-26.5Q47.4-26.5 50.27-24.65 53.15-22.8 54.8-19.78 56.45-16.75 56.45-13.15L56.45-13.15Q56.45-12.75 56.45-12.38 56.45-12 56.4-11.8L56.4-11.8 34.1-11.8Q34.35-9 35.67-6.83 37-4.65 39.12-3.38 41.25-2.1 43.75-2.1L43.75-2.1Q46.3-2.1 48.57-3.4 50.85-4.7 51.75-6.8L51.75-6.8 54.7-6Q53.9-4.15 52.25-2.65 50.6-1.15 48.37-0.33 46.15 0.5 43.6 0.5ZM34-14.25L34-14.25 53.25-14.25Q53.05-17.1 51.72-19.25 50.4-21.4 48.27-22.63 46.15-23.85 43.6-23.85L43.6-23.85Q41.05-23.85 38.95-22.63 36.85-21.4 35.52-19.23 34.2-17.05 34-14.25ZM72.4 0L68.75 0 58.2-26.05 61.75-26.05 70.65-3.4 79.59-26.05 82.95-26.05 72.4 0ZM97.99 0.5L97.99 0.5Q95.19 0.5 92.79-0.58 90.39-1.65 88.64-3.53 86.89-5.4 85.92-7.85 84.94-10.3 84.94-13.1L84.94-13.1Q84.94-16.75 86.62-19.8 88.29-22.85 91.24-24.68 94.19-26.5 97.94-26.5L97.94-26.5Q101.79-26.5 104.67-24.65 107.54-22.8 109.19-19.78 110.84-16.75 110.84-13.15L110.84-13.15Q110.84-12.75 110.84-12.38 110.84-12 110.79-11.8L110.79-11.8 88.49-11.8Q88.74-9 90.07-6.83 91.39-4.65 93.52-3.38 95.64-2.1 98.14-2.1L98.14-2.1Q100.69-2.1 102.97-3.4 105.24-4.7 106.14-6.8L106.14-6.8 109.09-6Q108.29-4.15 106.64-2.65 104.99-1.15 102.77-0.33 100.54 0.5 97.99 0.5ZM88.39-14.25L88.39-14.25 107.64-14.25Q107.44-17.1 106.12-19.25 104.79-21.4 102.67-22.63 100.54-23.85 97.99-23.85L97.99-23.85Q95.44-23.85 93.34-22.63 91.24-21.4 89.92-19.23 88.59-17.05 88.39-14.25ZM129.09-26.15L129.09-23.05Q125.69-22.95 123.12-21.15 120.54-19.35 119.49-16.2L119.49-16.2 119.49 0 116.09 0 116.09-26.05 119.29-26.05 119.29-19.8Q120.64-22.55 122.87-24.25 125.09-25.95 127.59-26.15L127.59-26.15Q128.09-26.2 128.47-26.2 128.84-26.2 129.09-26.15L129.09-26.15ZM142.19 0.5L142.19 0.5Q138.99 0.5 136.24-0.55 133.49-1.6 131.49-3.75L131.49-3.75 132.89-6.15Q135.09-4.1 137.31-3.18 139.54-2.25 142.04-2.25L142.04-2.25Q145.09-2.25 146.99-3.48 148.89-4.7 148.89-7L148.89-7Q148.89-8.55 147.96-9.38 147.04-10.2 145.31-10.73 143.59-11.25 141.19-11.85L141.19-11.85Q138.49-12.6 136.66-13.43 134.84-14.25 133.91-15.53 132.99-16.8 132.99-18.85L132.99-18.85Q132.99-21.4 134.26-23.08 135.54-24.75 137.76-25.63 139.99-26.5 142.74-26.5L142.74-26.5Q145.74-26.5 148.04-25.55 150.34-24.6 151.79-22.9L151.79-22.9 150.14-20.6Q148.74-22.2 146.81-22.98 144.89-23.75 142.54-23.75L142.54-23.75Q140.94-23.75 139.49-23.33 138.04-22.9 137.11-21.93 136.19-20.95 136.19-19.25L136.19-19.25Q136.19-17.85 136.89-17.07 137.59-16.3 138.99-15.78 140.39-15.25 142.44-14.65L142.44-14.65Q145.39-13.85 147.59-13.03 149.79-12.2 150.99-10.9 152.19-9.6 152.19-7.25L152.19-7.25Q152.19-3.6 149.44-1.55 146.69 0.5 142.19 0.5ZM195.23 0L171.23 0 171.23-35.5 174.73-35.5 174.73-3.1 195.23-3.1 195.23 0ZM197.58-7.5L197.58-7.5Q197.58-9.95 198.98-11.73 200.38-13.5 202.86-14.48 205.33-15.45 208.58-15.45L208.58-15.45Q210.48-15.45 212.53-15.15 214.58-14.85 216.18-14.25L216.18-14.25 216.18-16.45Q216.18-19.75 214.23-21.7 212.28-23.65 208.83-23.65L208.83-23.65Q206.73-23.65 204.71-22.88 202.68-22.1 200.48-20.6L200.48-20.6 199.18-23Q201.73-24.75 204.18-25.63 206.63-26.5 209.18-26.5L209.18-26.5Q213.98-26.5 216.78-23.75 219.58-21 219.58-16.15L219.58-16.15 219.58-4.1Q219.58-3.4 219.88-3.08 220.18-2.75 220.83-2.7L220.83-2.7 220.83 0Q220.28 0.05 219.88 0.1 219.48 0.15 219.28 0.1L219.28 0.1Q218.03 0.05 217.38-0.7 216.73-1.45 216.68-2.3L216.68-2.3 216.63-4.2Q214.88-1.95 212.08-0.73 209.28 0.5 206.38 0.5L206.38 0.5Q203.88 0.5 201.86-0.58 199.83-1.65 198.71-3.48 197.58-5.3 197.58-7.5ZM215.03-5.5L215.03-5.5Q215.58-6.2 215.88-6.85 216.18-7.5 216.18-8L216.18-8 216.18-11.8Q214.48-12.45 212.66-12.8 210.83-13.15 208.98-13.15L208.98-13.15Q205.33-13.15 203.08-11.7 200.83-10.25 200.83-7.75L200.83-7.75Q200.83-6.3 201.58-5.03 202.33-3.75 203.78-2.93 205.23-2.1 207.18-2.1L207.18-2.1Q209.63-2.1 211.76-3.05 213.88-4 215.03-5.5ZM239.68 0.5L239.68 0.5Q236.63 0.5 234.03-1.07 231.43-2.65 229.98-5.05L229.98-5.05 229.98 0 226.93 0 226.93-36.5 230.33-36.5 230.33-20.6Q232.08-23.25 234.53-24.88 236.98-26.5 240.23-26.5L240.23-26.5Q242.98-26.5 245.15-25.35 247.33-24.2 248.88-22.28 250.43-20.35 251.23-17.93 252.03-15.5 252.03-12.95L252.03-12.95Q252.03-10.2 251.1-7.8 250.18-5.4 248.48-3.53 246.78-1.65 244.55-0.58 242.33 0.5 239.68 0.5ZM238.88-2.5L238.88-2.5Q240.98-2.5 242.78-3.35 244.58-4.2 245.88-5.7 247.18-7.2 247.88-9.08 248.58-10.95 248.58-12.95L248.58-12.95Q248.58-15.7 247.4-18.13 246.23-20.55 244.15-22.03 242.08-23.5 239.28-23.5L239.28-23.5Q237.28-23.5 235.55-22.6 233.83-21.7 232.5-20.23 231.18-18.75 230.33-17L230.33-17 230.33-8.9Q230.53-7.55 231.38-6.38 232.23-5.2 233.5-4.35 234.78-3.5 236.18-3 237.58-2.5 238.88-2.5ZM266.33 0.5L266.33 0.5Q263.13 0.5 260.38-0.55 257.63-1.6 255.63-3.75L255.63-3.75 257.03-6.15Q259.23-4.1 261.45-3.18 263.68-2.25 266.18-2.25L266.18-2.25Q269.23-2.25 271.13-3.48 273.03-4.7 273.03-7L273.03-7Q273.03-8.55 272.1-9.38 271.18-10.2 269.45-10.73 267.73-11.25 265.33-11.85L265.33-11.85Q262.63-12.6 260.8-13.43 258.98-14.25 258.05-15.53 257.13-16.8 257.13-18.85L257.13-18.85Q257.13-21.4 258.4-23.08 259.68-24.75 261.9-25.63 264.13-26.5 266.88-26.5L266.88-26.5Q269.88-26.5 272.18-25.55 274.48-24.6 275.93-22.9L275.93-22.9 274.28-20.6Q272.88-22.2 270.95-22.98 269.03-23.75 266.68-23.75L266.68-23.75Q265.08-23.75 263.63-23.33 262.18-22.9 261.25-21.93 260.33-20.95 260.33-19.25L260.33-19.25Q260.33-17.85 261.03-17.07 261.73-16.3 263.13-15.78 264.53-15.25 266.58-14.65L266.58-14.65Q269.53-13.85 271.73-13.03 273.93-12.2 275.13-10.9 276.33-9.6 276.33-7.25L276.33-7.25Q276.33-3.6 273.58-1.55 270.83 0.5 266.33 0.5Z" opacity="1" transform="matrix(1,0,0,1,0,0)" fill="#0f0d12" class="undefined-text-0" data-fill-palette-color="primary" id="text-0"></path></svg></g></svg></g></svg></g></svg></g><g><svg viewBox="0 0 131.04886441575732 131.04886441575732" height="131.04886441575732" width="131.04886441575732"><g><svg></svg></g><g id="icon-0"><svg viewBox="0 0 131.04886441575732 131.04886441575732" height="131.04886441575732" width="131.04886441575732"><g><path d="M0 65.524c0-36.188 29.336-65.524 65.524-65.524 36.188 0 65.524 29.336 65.525 65.524 0 36.188-29.336 65.524-65.525 65.525-36.188 0-65.524-29.336-65.524-65.525zM65.524 126.195c33.508 0 60.671-27.163 60.671-60.671 0-33.508-27.163-60.671-60.671-60.67-33.508 0-60.671 27.163-60.67 60.67 0 33.508 27.163 60.671 60.67 60.671z" data-fill-palette-color="accent" fill="#3c5345" stroke="transparent"></path></g><g transform="matrix(1,0,0,1,27.60556389120793,37.99884295800648)"><svg viewBox="0 0 75.83773663334146 55.05117849974437" height="55.05117849974437" width="75.83773663334146"><g><svg xmlns="http://www.w3.org/2000/svg" xmlns:xlink="http://www.w3.org/1999/xlink" version="1.1" x="0" y="0" viewBox="5.5920000000000005 13.260749999999998 90.64137503834358 65.79724999999999" enable-background="new 0 0 100 100" xml:space="preserve" height="55.05117849974437" width="75.83773663334146" class="icon-ju-0" data-fill-palette-color="accent" id="ju-0"><g fill="#3c5345" data-fill-palette-color="accent"><path d="M47.134 60.574c-3.189 0-5.775 2.586-5.775 5.775H52.91C52.91 63.16 50.324 60.574 47.134 60.574z" fill="#3c5345" data-fill-palette-color="accent"></path><path d="M95.316 19.646l-5.469-5.468c-1.221-1.223-3.203-1.223-4.424 0l-11.461 11.46c-1.221 1.222-1.221 3.203 0 4.424l0.227 0.226-9.438 9.437c-5.141-3.487-11.344-5.525-18.023-5.525-17.755 0-32.148 14.394-32.148 32.149h18.373c0-0.057-0.004-0.112-0.004-0.17 0-7.915 6.417-14.332 14.333-14.332 7.917 0 14.333 6.417 14.333 14.332 0 0.058-0.002 0.113-0.004 0.17h17.268c0-8.471-3.281-16.172-8.637-21.915l9.047-9.046 0.143 0.143c1.223 1.222 3.203 1.222 4.426 0l11.459-11.459C96.539 22.85 96.539 20.869 95.316 19.646z" fill="#3c5345" data-fill-palette-color="accent"></path><path d="M85.752 72.086v0.017c-0.072-0.003-0.133-0.017-0.211-0.017H8.518c-2.303 0-2.926 1.183-2.926 3.485 0 2.366 0.623 3.487 2.926 3.487h77.023c0.078 0 0.139-0.012 0.211-0.014v0.014c2.303 0 2.926-1.182 2.926-3.485C88.678 73.207 88.055 72.086 85.752 72.086z" fill="#3c5345" data-fill-palette-color="accent"></path></g></svg></g></svg></g></svg></g></svg></g></svg></g><defs></defs></svg><rect width="395.52" height="93.90257611735336" fill="none" stroke="none" visibility="hidden"></rect></g></svg></g></svg>