<svg width="48" height="48" viewBox="0 0 48 48" fill="none" xmlns="http://www.w3.org/2000/svg">
<path d="M1.5001 0.375C1.20947 0.375 0.918994 0.487646 0.712744 0.712646C0.262744 1.16265 0.262744 1.87485 0.712744 2.28735L4.1998 5.8125C4.4248 6.0375 4.72539 6.15015 4.98789 6.15015C5.25039 6.15015 5.55024 6.0375 5.77524 5.8125C6.22524 5.3625 6.22524 4.65029 5.77524 4.23779L2.28745 0.712646C2.0812 0.487646 1.79072 0.375 1.5001 0.375ZM9.0001 0.375C8.70173 0.375 8.41558 0.493526 8.2046 0.704505C7.99362 0.915483 7.8751 1.20163 7.8751 1.5C7.8751 1.79837 7.99362 2.08452 8.2046 2.2955C8.41558 2.50647 8.70173 2.625 9.0001 2.625C9.29847 2.625 9.58461 2.50647 9.79559 2.2955C10.0066 2.08452 10.1251 1.79837 10.1251 1.5C10.1251 1.20163 10.0066 0.915483 9.79559 0.704505C9.58461 0.493526 9.29847 0.375 9.0001 0.375ZM46.5001 0.375C46.2095 0.375 45.919 0.487646 45.7127 0.712646L42.7127 3.71265C42.2627 4.16265 42.2627 4.87485 42.7127 5.28735C42.9377 5.51235 43.2376 5.625 43.5001 5.625C43.7626 5.625 44.0625 5.51235 44.2875 5.28735L47.2875 2.28735C47.7375 1.83735 47.7375 1.12515 47.2875 0.712646C47.0812 0.487646 46.7907 0.375 46.5001 0.375ZM18.0038 1.71167C17.6223 1.70815 17.2407 1.7625 16.8751 1.875C15.9001 2.2125 15.075 2.92515 14.6625 3.90015C14.4 4.46265 14.6623 5.13779 15.2623 5.36279C15.7498 5.62529 16.3877 5.36221 16.6502 4.76221C16.8002 4.38721 17.0998 4.12485 17.5123 3.97485C17.8873 3.86235 18.2998 3.90015 18.6373 4.08765L22.1251 6.15015C23.2501 6.82515 24.6752 6.82515 25.8377 6.15015L29.3248 4.08765C29.6623 3.90015 30.0748 3.82485 30.4498 3.97485C30.8248 4.08735 31.1251 4.38721 31.3126 4.76221L32.9254 8.47485C33.1129 8.88735 33.525 9.15015 33.975 9.15015C34.125 9.15015 34.2754 9.11235 34.4254 9.03735C34.9879 8.77485 35.2502 8.13721 35.0252 7.57471L33.4125 3.86279C33 2.92529 32.1748 2.175 31.1998 1.875C30.2248 1.575 29.1379 1.68765 28.2379 2.21265L24.7501 4.27515C24.3001 4.53765 23.7748 4.53765 23.3248 4.27515L19.8377 2.21265C19.2752 1.88452 18.6395 1.71753 18.0038 1.71167ZM9.9083 8.62207C9.83279 8.61475 9.75508 8.61563 9.67539 8.625L7.80039 8.8125C6.75039 8.925 5.77539 9.4875 5.17539 10.3125C4.57539 11.175 4.3498 12.2253 4.5748 13.2378C4.6873 13.7628 5.13745 14.1372 5.66245 14.1372C5.73745 14.1372 5.81289 14.1374 5.92539 14.0999C6.52539 13.9499 6.89995 13.35 6.78745 12.75C6.71245 12.3375 6.7873 11.9625 7.01231 11.625C7.23731 11.2875 7.61274 11.1 8.02524 11.0625L9.90024 10.875C10.5002 10.8 10.9875 10.2747 10.9125 9.63721C10.8468 9.11221 10.4369 8.67334 9.9083 8.62207ZM40.0042 8.80811C39.4757 8.85271 39.0657 9.26689 39.0001 9.82471C38.9251 10.4247 39.3748 10.9875 40.0123 11.0625C40.4248 11.1 40.7627 11.2875 41.0252 11.625C41.2502 11.9625 41.3626 12.3375 41.2501 12.75L40.3873 16.7249C40.0873 17.9999 40.5373 19.35 41.5123 20.25L44.5504 22.9497C44.8504 23.2122 45.0375 23.5875 45.0375 24C45.0375 24.4125 44.8879 24.7878 44.5504 25.0503L41.5123 27.75C40.5373 28.6125 40.0873 29.9626 40.3873 31.2751L41.2501 35.25C41.3251 35.6625 41.2502 36.0375 41.0252 36.375C40.7627 36.675 40.4248 36.9 40.0123 36.9375C39.4123 37.0125 38.9251 37.5378 39.0001 38.1753C39.0376 38.7753 39.5626 39.1875 40.1251 39.1875H40.2379C41.2879 39.075 42.2248 38.55 42.8248 37.6875C43.4248 36.825 43.6504 35.7747 43.4254 34.7622L42.5626 30.7874C42.4501 30.2999 42.6373 29.775 43.0123 29.4375L46.0504 26.7378C46.8379 26.0628 47.2875 25.05 47.2875 24C47.2875 22.95 46.8379 21.9747 46.0504 21.2622L43.0123 18.5625C42.6373 18.225 42.4501 17.7001 42.5626 17.2126L43.4254 13.2378C43.6504 12.2253 43.4248 11.1375 42.8248 10.3125C42.2248 9.45 41.2504 8.925 40.2379 8.8125C40.1582 8.80313 40.0798 8.80173 40.0042 8.80811ZM24.0001 11.25C16.9501 11.25 11.2501 16.95 11.2501 24C11.2501 31.05 16.9501 36.75 24.0001 36.75C31.0501 36.75 36.7501 31.05 36.7501 24C36.7501 16.95 31.0501 11.25 24.0001 11.25ZM24.0001 13.875C24.6376 13.875 25.1251 14.3625 25.1251 15C25.1251 15.6375 24.6376 16.125 24.0001 16.125C23.5126 16.125 22.9876 16.1626 22.5001 16.2751C22.4251 16.2751 22.3502 16.3125 22.2752 16.3125C21.7502 16.3125 21.2626 15.9374 21.1876 15.4124C21.0751 14.7749 21.4504 14.175 22.0504 14.0625C22.6879 13.95 23.3251 13.875 24.0001 13.875ZM6.48643 15.8423C6.4123 15.8416 6.33731 15.8487 6.2623 15.8628C5.6623 16.0128 5.28774 16.6126 5.40024 17.2126C5.51274 17.7001 5.3248 18.225 4.9498 18.5625L1.91245 21.2622C1.16245 21.9747 0.712744 22.95 0.712744 24C0.712744 25.05 1.1623 26.0253 1.9498 26.7378L4.98789 29.4375C5.36289 29.775 5.5501 30.2999 5.4376 30.7874L4.5748 34.7622C4.3498 35.7747 4.57539 36.8625 5.17539 37.6875C5.77539 38.55 6.7498 39.075 7.76231 39.1875L11.8126 39.5625C12.3001 39.6 12.75 39.9372 12.975 40.3872L14.5877 44.0999C14.7752 44.5124 15.1873 44.7751 15.6373 44.7751C15.7873 44.7751 15.9377 44.7374 16.0877 44.6624C16.6502 44.3999 16.9126 43.7622 16.6876 43.1997L15.0748 39.4878C14.5498 38.2878 13.3873 37.425 12.0748 37.3125L8.02524 36.9375C7.61274 36.9 7.27481 36.7125 7.01231 36.375C6.7498 36.0375 6.6751 35.625 6.7501 35.25L7.61289 31.2751C7.91289 30.0001 7.46289 28.65 6.48789 27.75L3.4498 25.0503C3.1498 24.7878 2.96274 24.4125 2.96274 24C2.96274 23.5875 3.1123 23.2122 3.4498 22.9497L6.48789 20.25C7.46289 19.3875 7.91289 18.0374 7.61289 16.7249C7.48164 16.1999 7.00527 15.8469 6.48643 15.8423ZM16.4972 17.9041C16.7171 17.9049 16.9404 17.9722 17.1373 18.1128C17.6623 18.4503 17.8126 19.1625 17.4376 19.6875C16.5751 20.9625 16.1251 22.4625 16.1251 24C16.1251 26.1 16.9498 28.0878 18.4498 29.5503C18.8998 30.0003 18.8998 30.7125 18.4498 31.125C18.2248 31.3875 17.9251 31.5 17.6251 31.5C17.3251 31.5 17.0627 31.3874 16.8377 31.1624C14.9252 29.2499 13.8751 26.7 13.8751 24C13.8751 22.0125 14.4376 20.0624 15.5626 18.4124C15.7735 18.0842 16.1306 17.9026 16.4972 17.9041ZM33.9801 38.8228C33.567 38.8122 33.1596 39.0659 32.9627 39.4878L31.35 43.1997C31.2 43.5747 30.9004 43.8378 30.4879 43.9878C30.1129 44.1003 29.7004 44.0625 29.3629 43.875L25.8751 41.8125C24.7501 41.1375 23.325 41.1375 22.1625 41.8125L18.6754 43.875C18.1504 44.175 17.9623 44.8874 18.2623 45.4124C18.5623 45.9374 19.2754 46.1247 19.8004 45.8247L23.2875 43.7622C23.7375 43.4997 24.2627 43.4997 24.7127 43.7622L28.1998 45.8247C28.7623 46.1622 29.4 46.3125 30.0375 46.3125C30.4125 46.3125 30.7875 46.2375 31.1625 46.125C32.1375 45.7875 32.9626 45.0749 33.3751 44.0999L34.9879 40.3872C35.2504 39.8247 34.9873 39.1503 34.3873 38.9253C34.2561 38.8597 34.1178 38.8263 33.9801 38.8228ZM42.5113 41.4375C42.2254 41.4375 41.9441 41.5501 41.7379 41.7751C41.2879 42.2251 41.2879 42.9374 41.7379 43.3499L45.7127 47.2874C45.9377 47.5124 46.2001 47.625 46.5001 47.625C46.8001 47.625 47.0625 47.5124 47.2875 47.2874C47.7375 46.8374 47.7375 46.1251 47.2875 45.7126L43.3126 41.7751C43.0876 41.5501 42.7973 41.4375 42.5113 41.4375Z" fill="white"/>
</svg>
