<?xml version="1.0" encoding="UTF-8"?>
<svg id="Layer_1" data-name="Layer 1" xmlns="http://www.w3.org/2000/svg" viewBox="0 0 546.67 228.86">
  <defs>
    <style>
      .cls-1 {
        letter-spacing: -.02em;
      }

      .cls-2 {
        fill: #3d5145;
      }

      .cls-3 {
        fill: none;
        stroke: #000;
        stroke-miterlimit: 10;
        stroke-width: 2px;
      }

      .cls-4 {
        fill: #fff;
        font-family: ArialMT, Arial;
        font-size: 21px;
      }
    </style>
  </defs>
  <g>
    <rect class="cls-2" x="227.03" y=".5" width="205.17" height="58.21" rx="26.37" ry="26.37"/>
    <path d="m405.82,1c14.27,0,25.87,11.61,25.87,25.87v5.46c0,14.27-11.61,25.87-25.87,25.87h-152.42c-14.27,0-25.87-11.61-25.87-25.87v-5.46c0-14.27,11.61-25.87,25.87-25.87h152.42m0-1h-152.42c-14.84,0-26.87,12.03-26.87,26.87v5.46c0,14.84,12.03,26.87,26.87,26.87h152.42c14.84,0,26.87-12.03,26.87-26.87v-5.46c0-14.84-12.03-26.87-26.87-26.87h0Z"/>
  </g>
  <g>
    <path class="cls-2" d="m26.87,170.16h152.42c14.56,0,26.37,11.82,26.37,26.37v5.46c0,14.56-11.82,26.37-26.37,26.37H26.87c-14.56,0-26.37-11.82-26.37-26.37v-5.46c0-14.56,11.82-26.37,26.37-26.37Z"/>
    <path d="m179.29,170.66c14.27,0,25.87,11.61,25.87,25.87v5.46c0,14.27-11.61,25.87-25.87,25.87H26.87c-14.27,0-25.87-11.61-25.87-25.87v-5.46c0-14.27,11.61-25.87,25.87-25.87h152.42m0-1H26.87c-14.84,0-26.87,12.03-26.87,26.87v5.46c0,14.84,12.03,26.87,26.87,26.87h152.42c14.84,0,26.87-12.03,26.87-26.87v-5.46c0-14.84-12.03-26.87-26.87-26.87h0Z"/>
  </g>
  <g>
    <path class="cls-2" d="m253.87,170.16h152.42c14.56,0,26.37,11.82,26.37,26.37v5.46c0,14.56-11.82,26.37-26.37,26.37h-152.42c-14.56,0-26.37-11.82-26.37-26.37v-5.46c0-14.56,11.82-26.37,26.37-26.37Z"/>
    <path d="m406.29,170.66c14.27,0,25.87,11.61,25.87,25.87v5.46c0,14.27-11.61,25.87-25.87,25.87h-152.42c-14.27,0-25.87-11.61-25.87-25.87v-5.46c0-14.27,11.61-25.87,25.87-25.87h152.42m0-1h-152.42c-14.84,0-26.87,12.03-26.87,26.87v5.46c0,14.84,12.03,26.87,26.87,26.87h152.42c14.84,0,26.87-12.03,26.87-26.87v-5.46c0-14.84-12.03-26.87-26.87-26.87h0Z"/>
  </g>
  <g>
    <path class="cls-2" d="m140.37,85.16h152.42c14.56,0,26.37,11.82,26.37,26.37v5.46c0,14.56-11.82,26.37-26.37,26.37h-152.42c-14.56,0-26.37-11.82-26.37-26.37v-5.46c0-14.56,11.82-26.37,26.37-26.37Z"/>
    <path d="m292.79,85.66c14.27,0,25.87,11.61,25.87,25.87v5.46c0,14.27-11.61,25.87-25.87,25.87h-152.42c-14.27,0-25.87-11.61-25.87-25.87v-5.46c0-14.27,11.61-25.87,25.87-25.87h152.42m0-1h-152.42c-14.84,0-26.87,12.03-26.87,26.87v5.46c0,14.84,12.03,26.87,26.87,26.87h152.42c14.84,0,26.87-12.03,26.87-26.87v-5.46c0-14.84-12.03-26.87-26.87-26.87h0Z"/>
  </g>
  <g>
    <rect class="cls-2" x="341" y="85.16" width="205.17" height="58.21" rx="26.37" ry="26.37"/>
    <path d="m519.79,85.66c14.27,0,25.87,11.61,25.87,25.87v5.46c0,14.27-11.61,25.87-25.87,25.87h-152.42c-14.27,0-25.87-11.61-25.87-25.87v-5.46c0-14.27,11.61-25.87,25.87-25.87h152.42m0-1h-152.42c-14.84,0-26.87,12.03-26.87,26.87v5.46c0,14.84,12.03,26.87,26.87,26.87h152.42c14.84,0,26.87-12.03,26.87-26.87v-5.46c0-14.84-12.03-26.87-26.87-26.87h0Z"/>
  </g>
  <line class="cls-3" x1="329.61" y1="59.1" x2="329.61" y2="71.1"/>
  <line class="cls-3" x1="329.61" y1="70.6" x2="443.61" y2="70.6"/>
  <line class="cls-3" x1="216.61" y1="70.6" x2="329.11" y2="70.6"/>
  <line class="cls-3" x1="216.61" y1="84.6" x2="216.61" y2="70.6"/>
  <line class="cls-3" x1="443.61" y1="85.1" x2="443.61" y2="70.6"/>
  <line class="cls-3" x1="215.89" y1="144" x2="215.89" y2="156"/>
  <line class="cls-3" x1="215.89" y1="155.5" x2="329.89" y2="155.5"/>
  <line class="cls-3" x1="102.89" y1="155.5" x2="215.39" y2="155.5"/>
  <line class="cls-3" x1="329.89" y1="170" x2="329.89" y2="155.5"/>
  <line class="cls-3" x1="102.38" y1="169.79" x2="102.38" y2="155.29"/>
  <text class="cls-4" transform="translate(76.87 206.14)"><tspan x="0" y="0">Leads</tspan></text>
  <text class="cls-4" transform="translate(284.52 37.07)"><tspan x="0" y="0">Revenue</tspan></text>
  <text class="cls-4" transform="translate(164.64 120.14)"><tspan x="0" y="0">Customers</tspan></text>
  <text class="cls-4" transform="translate(422.91 120.14)"><tspan x="0" y="0">AS</tspan><tspan class="cls-1" x="28.01" y="0">P</tspan></text>
  <text class="cls-4" transform="translate(289.06 206.14)"><tspan x="0" y="0">Win Rate</tspan></text>
</svg>