<?xml version="1.0" encoding="UTF-8"?>
<svg id="Layer_1" data-name="Layer 1" xmlns="http://www.w3.org/2000/svg" viewBox="0 0 566.56 341.1">
  <defs>
    <style>
      .cls-1 {
        letter-spacing: -.02em;
      }

      .cls-2, .cls-3 {
        font-family: ArialMT, Arial;
      }

      .cls-4 {
        fill: #ff6584;
      }

      .cls-5 {
        fill: #3d5145;
      }

      .cls-6 {
        font-family: Arial-ItalicMT, Arial;
        font-size: 14px;
        font-style: italic;
      }

      .cls-7 {
        letter-spacing: -.07em;
      }

      .cls-8 {
        font-size: 19px;
      }

      .cls-9 {
        fill: none;
        stroke: #000;
        stroke-miterlimit: 10;
        stroke-width: 2px;
      }

      .cls-10 {
        font-family: Arial-BoldMT, Arial;
        font-weight: 700;
      }

      .cls-3 {
        fill: #fff;
        font-size: 21px;
      }
    </style>
  </defs>
  <g>
    <rect class="cls-5" x="246.92" y=".5" width="205.17" height="58.21" rx="26.37" ry="26.37"/>
    <path d="m425.71,1c14.27,0,25.87,11.61,25.87,25.87v5.46c0,14.27-11.61,25.87-25.87,25.87h-152.42c-14.27,0-25.87-11.61-25.87-25.87v-5.46c0-14.27,11.61-25.87,25.87-25.87h152.42m0-1h-152.42c-14.84,0-26.87,12.03-26.87,26.87v5.46c0,14.84,12.03,26.87,26.87,26.87h152.42c14.84,0,26.87-12.03,26.87-26.87v-5.46c0-14.84-12.03-26.87-26.87-26.87h0Z"/>
  </g>
  <g>
    <path class="cls-5" d="m46.76,170.16h152.42c14.56,0,26.37,11.82,26.37,26.37v5.46c0,14.56-11.82,26.37-26.37,26.37H46.76c-14.56,0-26.37-11.82-26.37-26.37v-5.46c0-14.56,11.82-26.37,26.37-26.37Z"/>
    <path d="m199.18,170.66c14.27,0,25.87,11.61,25.87,25.87v5.46c0,14.27-11.61,25.87-25.87,25.87H46.76c-14.27,0-25.87-11.61-25.87-25.87v-5.46c0-14.27,11.61-25.87,25.87-25.87h152.42m0-1H46.76c-14.84,0-26.87,12.03-26.87,26.87v5.46c0,14.84,12.03,26.87,26.87,26.87h152.42c14.84,0,26.87-12.03,26.87-26.87v-5.46c0-14.84-12.03-26.87-26.87-26.87h0Z"/>
  </g>
  <g>
    <path class="cls-5" d="m273.76,170.16h152.42c14.56,0,26.37,11.82,26.37,26.37v5.46c0,14.56-11.82,26.37-26.37,26.37h-152.42c-14.56,0-26.37-11.82-26.37-26.37v-5.46c0-14.56,11.82-26.37,26.37-26.37Z"/>
    <path d="m426.18,170.66c14.27,0,25.87,11.61,25.87,25.87v5.46c0,14.27-11.61,25.87-25.87,25.87h-152.42c-14.27,0-25.87-11.61-25.87-25.87v-5.46c0-14.27,11.61-25.87,25.87-25.87h152.42m0-1h-152.42c-14.84,0-26.87,12.03-26.87,26.87v5.46c0,14.84,12.03,26.87,26.87,26.87h152.42c14.84,0,26.87-12.03,26.87-26.87v-5.46c0-14.84-12.03-26.87-26.87-26.87h0Z"/>
  </g>
  <g>
    <path class="cls-5" d="m160.26,85.16h152.42c14.56,0,26.37,11.82,26.37,26.37v5.46c0,14.56-11.82,26.37-26.37,26.37h-152.42c-14.56,0-26.37-11.82-26.37-26.37v-5.46c0-14.56,11.82-26.37,26.37-26.37Z"/>
    <path d="m312.68,85.66c14.27,0,25.87,11.61,25.87,25.87v5.46c0,14.27-11.61,25.87-25.87,25.87h-152.42c-14.27,0-25.87-11.61-25.87-25.87v-5.46c0-14.27,11.61-25.87,25.87-25.87h152.42m0-1h-152.42c-14.84,0-26.87,12.03-26.87,26.87v5.46c0,14.84,12.03,26.87,26.87,26.87h152.42c14.84,0,26.87-12.03,26.87-26.87v-5.46c0-14.84-12.03-26.87-26.87-26.87h0Z"/>
  </g>
  <g>
    <rect class="cls-5" x="360.89" y="85.16" width="205.17" height="58.21" rx="26.37" ry="26.37"/>
    <path d="m539.68,85.66c14.27,0,25.87,11.61,25.87,25.87v5.46c0,14.27-11.61,25.87-25.87,25.87h-152.42c-14.27,0-25.87-11.61-25.87-25.87v-5.46c0-14.27,11.61-25.87,25.87-25.87h152.42m0-1h-152.42c-14.84,0-26.87,12.03-26.87,26.87v5.46c0,14.84,12.03,26.87,26.87,26.87h152.42c14.84,0,26.87-12.03,26.87-26.87v-5.46c0-14.84-12.03-26.87-26.87-26.87h0Z"/>
  </g>
  <line class="cls-9" x1="349.5" y1="59.1" x2="349.5" y2="71.1"/>
  <line class="cls-9" x1="349.5" y1="70.6" x2="463.5" y2="70.6"/>
  <line class="cls-9" x1="236.5" y1="70.6" x2="349" y2="70.6"/>
  <line class="cls-9" x1="236.5" y1="84.6" x2="236.5" y2="70.6"/>
  <line class="cls-9" x1="463.5" y1="85.1" x2="463.5" y2="70.6"/>
  <line class="cls-9" x1="235.78" y1="144" x2="235.78" y2="156"/>
  <line class="cls-9" x1="235.78" y1="155.5" x2="349.78" y2="155.5"/>
  <line class="cls-9" x1="122.78" y1="155.5" x2="235.28" y2="155.5"/>
  <line class="cls-9" x1="349.78" y1="170" x2="349.78" y2="155.5"/>
  <line class="cls-9" x1="122.27" y1="169.79" x2="122.27" y2="155.29"/>
  <text class="cls-3" transform="translate(96.76 206.14)"><tspan x="0" y="0">Leads</tspan></text>
  <text class="cls-3" transform="translate(304.41 37.07)"><tspan x="0" y="0">Revenue</tspan></text>
  <text class="cls-3" transform="translate(184.53 120.14)"><tspan x="0" y="0">Customers</tspan></text>
  <text class="cls-3" transform="translate(442.8 120.14)"><tspan x="0" y="0">AS</tspan><tspan class="cls-1" x="28.01" y="0">P</tspan></text>
  <text class="cls-3" transform="translate(308.95 206.14)"><tspan x="0" y="0">Win Rate</tspan></text>
  <line class="cls-9" x1="349.87" y1="243.06" x2="349.87" y2="228.56"/>
  <g>
    <rect class="cls-4" x="246.94" y="270.78" width="205.17" height="58.21" rx="26.37" ry="26.37"/>
    <path d="m425.74,271.28c14.27,0,25.87,11.61,25.87,25.87v5.46c0,14.27-11.61,25.87-25.87,25.87h-152.42c-14.27,0-25.87-11.61-25.87-25.87v-5.46c0-14.27,11.61-25.87,25.87-25.87h152.42m0-1h-152.42c-14.84,0-26.87,12.03-26.87,26.87v5.46c0,14.84,12.03,26.87,26.87,26.87h152.42c14.84,0,26.87-12.03,26.87-26.87v-5.46c0-14.84-12.03-26.87-26.87-26.87h0Z"/>
  </g>
  <text class="cls-3" transform="translate(277.37 305.49)"><tspan x="0" y="0">Speed to Lead</tspan></text>
  <text class="cls-6" transform="translate(301.41 254.25)"><tspan x="0" y="0">80% Correlation</tspan></text>
  <line class="cls-9" x1="349.56" y1="271.9" x2="349.56" y2="257.4"/>
  <path d="m557,265.1h-12v2h12v-2h0Zm-24,0h-12v2h12v-2h0Zm-24,0h-12v2h12v-2h0Zm-24,0h-12v2h12v-2h0Zm-24,0h-12v2h12v-2h0Zm-24,0h-12v2h12v-2h0Zm-24,0h-12v2h12v-2h0Zm-24,0h-12v2h12v-2h0Zm-24,0h-12v2h12v-2h0Zm-24,0h-12v2h12v-2h0Zm-24,0h-12v2h12v-2h0Zm-24,0h-12v2h12v-2h0Zm-24,0h-12v2h12v-2h0Zm-24,0h-12v2h12v-2h0Zm-24,0h-12v2h12v-2h0Zm-24,0h-12v2h12v-2h0Zm-24,0h-12v2h12v-2h0Zm-24,0h-12v2h12v-2h0Zm-24,0h-12v2h12v-2h0Zm-24,0h-12v2h12v-2h0Zm-24,0h-12v2h12v-2h0Zm-24,0h-12v2h12v-2h0Zm-24,0h-12v2h12v-2h0Zm-24,0H0v2h0v5h2v-5h3v-2h0Zm-3,19H0v12h2v-12h0Zm0,24H0v12h2v-12h0Zm0,24H0v9h3v-2h-1v-7h0Zm25,7h-12v2h12v-2h0Zm24,0h-12v2h12v-2h0Zm24,0h-12v2h12v-2h0Zm24,0h-12v2h12v-2h0Zm24,0h-12v2h12v-2h0Zm24,0h-12v2h12v-2h0Zm24,0h-12v2h12v-2h0Zm24,0h-12v2h12v-2h0Zm24,0h-12v2h12v-2h0Zm24,0h-12v2h12v-2h0Zm24,0h-12v2h12v-2h0Zm24,0h-12v2h12v-2h0Zm24,0h-12v2h12v-2h0Zm24,0h-12v2h12v-2h0Zm24,0h-12v2h12v-2h0Zm24,0h-12v2h12v-2h0Zm24,0h-12v2h12v-2h0Zm24,0h-12v2h12v-2h0Zm24,0h-12v2h12v-2h0Zm24,0h-12v2h12v-2h0Zm24,0h-12v2h12v-2h0Zm24,0h-12v2h12v-2h0Zm24,0h-12v2h12v-2h0Zm2-20h-2v12h2v-12h0Zm0-24h-2v12h2v-12h0Zm0-24h-2v12h2v-12h0Z"/>
  <text class="cls-3" transform="translate(277.37 305.49)"><tspan x="0" y="0">Speed to Lead</tspan></text>
  <text class="cls-8" transform="translate(17.75 295.8)"><tspan class="cls-10"><tspan x="0" y="0">Q4 </tspan><tspan class="cls-7" x="30.62" y="0">T</tspan><tspan x="40.82" y="0">arget:</tspan></tspan><tspan class="cls-2"><tspan x="0" y="22.8">80% &lt;2 Min</tspan></tspan></text>
</svg>