<svg width="48" height="48" viewBox="0 0 48 48" fill="none" xmlns="http://www.w3.org/2000/svg">
<path d="M20.9999 8.21265C16.2374 8.21265 12.3749 12.0751 12.3749 16.8376C12.3749 17.4751 12.8624 17.9626 13.4999 17.9626H15.4496H15.525C19.8375 17.9626 24.2249 17.9626 27.3749 15.1501V15.1875C27.5249 15.0375 27.6748 14.9251 27.7873 14.7751C28.1998 14.3251 28.9127 14.2499 29.3627 14.6624C29.8502 15.0749 29.8874 15.825 29.4374 16.3125L28.9123 16.8376C28.4248 17.3251 28.6124 18.1499 29.2499 18.4124C29.6249 18.5624 30.0371 18.6378 30.4496 18.6753C31.0121 18.7503 31.4625 19.2003 31.4625 19.8003V22.3499C31.5 26.2874 28.5 29.7 24.525 30C20.175 30.3 16.5374 26.8499 16.4999 22.5374C16.4999 21.9374 16.0496 21.4125 15.4496 21.375C14.8121 21.3375 14.2499 21.8625 14.2499 22.5C14.2499 27.8625 18.6374 32.25 23.9999 32.25C29.2124 32.25 33.4874 28.1628 33.7499 22.9878V22.875V17.625V16.5V16.125C33.7499 13.425 31.7248 11.2124 29.0998 10.9124L28.9496 10.6875C27.8621 9.15 26.0624 8.21265 24.1874 8.21265H20.9999ZM23.9999 34.125C17.8499 34.125 12.1502 37.4624 9.11269 42.7874C8.81269 43.3124 9.00005 44.0247 9.52505 44.3247C9.71255 44.4372 9.90005 44.4749 10.0875 44.4749C10.4625 44.4749 10.8749 44.2874 11.0624 43.9124C13.7249 39.2624 18.6749 36.375 23.9999 36.375C29.3249 36.375 34.2749 39.2624 36.9374 43.9124C37.2374 44.4374 37.9498 44.6247 38.4748 44.3247C38.9998 44.0247 39.1871 43.3124 38.8871 42.7874C35.8496 37.4624 30.1499 34.125 23.9999 34.125Z" fill="white"/>
</svg>
