<svg width="48" height="48" viewBox="0 0 48 48" fill="none" xmlns="http://www.w3.org/2000/svg">
<path d="M5.25 0.375C2.55 0.375 0.375 2.55 0.375 5.25V10.5C0.375 11.1375 0.8625 11.625 1.5 11.625H41.625C42.2625 11.625 42.75 11.1375 42.75 10.5C42.75 9.8625 42.2625 9.375 41.625 9.375H2.625V5.25C2.625 3.7875 3.7875 2.625 5.25 2.625H42.75C44.2125 2.625 45.375 3.7875 45.375 5.25V42.75C45.375 44.2125 44.2125 45.375 42.75 45.375H14.625C13.9875 45.375 13.5 45.8625 13.5 46.5C13.5 47.1375 13.9875 47.625 14.625 47.625H42.75C45.45 47.625 47.625 45.45 47.625 42.75V5.25C47.625 2.55 45.45 0.375 42.75 0.375H5.25ZM6 4.875C5.70163 4.875 5.41548 4.99353 5.2045 5.2045C4.99353 5.41548 4.875 5.70163 4.875 6C4.875 6.29837 4.99353 6.58452 5.2045 6.7955C5.41548 7.00647 5.70163 7.125 6 7.125C6.29837 7.125 6.58452 7.00647 6.7955 6.7955C7.00647 6.58452 7.125 6.29837 7.125 6C7.125 5.70163 7.00647 5.41548 6.7955 5.2045C6.58452 4.99353 6.29837 4.875 6 4.875ZM9.75 4.875C9.45163 4.875 9.16548 4.99353 8.9545 5.2045C8.74353 5.41548 8.625 5.70163 8.625 6C8.625 6.29837 8.74353 6.58452 8.9545 6.7955C9.16548 7.00647 9.45163 7.125 9.75 7.125C10.0484 7.125 10.3345 7.00647 10.5455 6.7955C10.7565 6.58452 10.875 6.29837 10.875 6C10.875 5.70163 10.7565 5.41548 10.5455 5.2045C10.3345 4.99353 10.0484 4.875 9.75 4.875ZM13.5 4.875C13.2016 4.875 12.9155 4.99353 12.7045 5.2045C12.4935 5.41548 12.375 5.70163 12.375 6C12.375 6.29837 12.4935 6.58452 12.7045 6.7955C12.9155 7.00647 13.2016 7.125 13.5 7.125C13.7984 7.125 14.0845 7.00647 14.2955 6.7955C14.5065 6.58452 14.625 6.29837 14.625 6C14.625 5.70163 14.5065 5.41548 14.2955 5.2045C14.0845 4.99353 13.7984 4.875 13.5 4.875ZM1.5 14.25C0.8625 14.25 0.375 14.7375 0.375 15.375V33.4124C0.375 34.0499 0.8625 34.5374 1.5 34.5374C2.1375 34.5374 2.625 34.0499 2.625 33.4124V15.375C2.625 14.7375 2.1375 14.25 1.5 14.25ZM37.5 15.375C35.2125 15.375 33.375 17.2125 33.375 19.5C33.375 20.7375 33.9378 21.8628 34.8003 22.6128L29.9253 33.0747C29.7003 33.0372 29.475 33 29.25 33C28.3875 33 27.6003 33.2626 26.9253 33.7126L21 28.6875C21.225 28.1625 21.375 27.6 21.375 27C21.375 24.7125 19.5375 22.875 17.25 22.875C14.9625 22.875 13.125 24.7125 13.125 27C13.125 27.9 13.4247 28.7625 13.9497 29.4375L6.03735 39.6753C5.54985 39.4878 5.0625 39.375 4.5 39.375C2.2125 39.375 0.375 41.2125 0.375 43.5C0.375 45.7875 2.2125 47.625 4.5 47.625C6.7875 47.625 8.625 45.7875 8.625 43.5C8.625 42.6 8.32529 41.7375 7.80029 41.0625L15.7126 30.8247C16.2001 31.0122 16.6875 31.125 17.25 31.125C18.1125 31.125 18.8997 30.8624 19.5747 30.4124L25.5 35.4375C25.275 35.9625 25.125 36.525 25.125 37.125C25.125 39.4125 26.9625 41.25 29.25 41.25C31.5375 41.25 33.375 39.4125 33.375 37.125C33.375 35.8875 32.8122 34.7622 31.9497 34.0122L36.8247 23.5503C37.0497 23.5878 37.275 23.625 37.5 23.625C39.7875 23.625 41.625 21.7875 41.625 19.5C41.625 17.2125 39.7875 15.375 37.5 15.375ZM37.5 17.625C38.55 17.625 39.375 18.45 39.375 19.5C39.375 20.55 38.55 21.375 37.5 21.375C36.45 21.375 35.625 20.55 35.625 19.5C35.625 18.45 36.45 17.625 37.5 17.625ZM17.25 25.125C18.3 25.125 19.125 25.95 19.125 27C19.125 28.05 18.3 28.875 17.25 28.875C16.2 28.875 15.375 28.05 15.375 27C15.375 25.95 16.2 25.125 17.25 25.125ZM29.25 35.25C30.3 35.25 31.125 36.075 31.125 37.125C31.125 38.175 30.3 39 29.25 39C28.2 39 27.375 38.175 27.375 37.125C27.375 36.075 28.2 35.25 29.25 35.25ZM4.5 41.625C5.55 41.625 6.375 42.45 6.375 43.5C6.375 44.55 5.55 45.375 4.5 45.375C3.45 45.375 2.625 44.55 2.625 43.5C2.625 42.45 3.45 41.625 4.5 41.625Z" fill="white"/>
</svg>
